Coordinates
version=1
nRows=17
nColumns=40
inDegrees=yes

Units are S.I. units (second, meters, Newtons, ...)
If the header above contains a line with 'inDegrees', this indicates whether rotational values are in degrees (yes) or radians (no).

endheader
time	pelvis_tilt	pelvis_list	pelvis_rotation	pelvis_tx	pelvis_ty	pelvis_tz	hip_flexion_r	hip_adduction_r	hip_rotation_r	knee_angle_r	knee_angle_r_beta	ankle_angle_r	subtalar_angle_r	mtp_angle_r	hip_flexion_l	hip_adduction_l	hip_rotation_l	knee_angle_l	knee_angle_l_beta	ankle_angle_l	subtalar_angle_l	mtp_angle_l	lumbar_extension	lumbar_bending	lumbar_rotation	arm_flex_r	arm_add_r	arm_rot_r	elbow_flex_r	pro_sup_r	wrist_flex_r	wrist_dev_r	arm_flex_l	arm_add_l	arm_rot_l	elbow_flex_l	pro_sup_l	wrist_flex_l	wrist_dev_l
      1.62000000	     -5.37275434	     -9.05248806	     89.23695903	      0.13649429	      0.92398544	     -1.12437160	     32.17475755	     -5.08585445	      0.47306297	     57.97819536	      1.01191040	      4.85405250	      0.00000000	      0.00000000	     11.54014984	      8.85727446	      4.62846402	      3.44501806	      0.06012691	      1.05724674	      0.00000000	      0.00000000	      5.53085556	     -6.21195338	     -0.80156662	      0.00000000	      0.00000000	      0.00000000	      0.00000000	      0.00000000	      0.00000000	      0.00000000	      0.00000000	      0.00000000	      0.00000000	      0.00000000	      0.00000000	      0.00000000	      0.00000000
      1.63000000	     -5.21068426	     -9.05368081	     89.29375041	      0.13576343	      0.92407776	     -1.13608251	     33.17002116	     -4.83480519	      0.46435360	     55.81885901	      0.97422287	      5.52742277	      0.00000000	      0.00000000	     10.45079637	      8.76283504	      4.98664045	      2.96585187	      0.05176388	      1.52737522	      0.00000000	      0.00000000	      5.42736357	     -5.97034168	     -1.08503497	      0.00000000	      0.00000000	      0.00000000	      0.00000000	      0.00000000	      0.00000000	      0.00000000	      0.00000000	      0.00000000	      0.00000000	      0.00000000	      0.00000000	      0.00000000	      0.00000000
      1.64000000	     -5.13122452	     -8.73597736	     89.36451028	      0.13499524	      0.92435329	     -1.14813041	     33.67692360	     -4.76398815	      0.31646447	     53.41472726	      0.93226286	      6.05897604	      0.00000000	      0.00000000	      8.90616308	      8.76657277	      5.59581393	      2.31972453	      0.04048683	      1.99709520	      0.00000000	      0.00000000	      4.97464196	     -5.81986170	     -1.31458649	      0.00000000	      0.00000000	      0.00000000	      0.00000000	      0.00000000	      0.00000000	      0.00000000	      0.00000000	      0.00000000	      0.00000000	      0.00000000	      0.00000000	      0.00000000	      0.00000000
      1.65000000	     -5.06528676	     -8.55904529	     89.41431298	      0.13428803	      0.92414514	     -1.16011625	     34.26086480	     -4.69578741	      0.16925158	     50.82686068	      0.88709607	      6.44677177	      0.00000000	      0.00000000	      7.59899321	      8.76672958	      6.01424579	      1.82262057	      0.03181073	      2.47462859	      0.00000000	      0.00000000	      4.69909475	     -5.68393910	     -1.55430126	      0.00000000	      0.00000000	      0.00000000	      0.00000000	      0.00000000	      0.00000000	      0.00000000	      0.00000000	      0.00000000	      0.00000000	      0.00000000	      0.00000000	      0.00000000	      0.00000000
      1.66000000	     -5.03776194	     -8.38297723	     89.46248893	      0.13361903	      0.92367694	     -1.17218582	     34.74513143	     -4.68528665	     -0.04212041	     48.05205283	      0.83866653	      6.72822759	      0.00000000	      0.00000000	      6.30751174	      8.79982253	      6.44631314	      1.36696406	      0.02385802	      3.04741401	      0.00000000	      0.00000000	      4.43927246	     -5.59762083	     -1.73625137	      0.00000000	      0.00000000	      0.00000000	      0.00000000	      0.00000000	      0.00000000	      0.00000000	      0.00000000	      0.00000000	      0.00000000	      0.00000000	      0.00000000	      0.00000000	      0.00000000
      1.67000000	     -5.02265067	     -8.32016488	     89.50367383	      0.13303984	      0.92279351	     -1.18423813	     35.26216935	     -4.68143091	     -0.30415424	     45.09872546	      0.78712125	      6.89024729	      0.00000000	      0.00000000	      5.18862603	      8.83313985	      6.79832843	      1.00869096	      0.01760498	      3.67429024	      0.00000000	      0.00000000	      4.31972560	     -5.53503860	     -1.90928099	      0.00000000	      0.00000000	      0.00000000	      0.00000000	      0.00000000	      0.00000000	      0.00000000	      0.00000000	      0.00000000	      0.00000000	      0.00000000	      0.00000000	      0.00000000	      0.00000000
      1.68000000	     -5.06708726	     -8.12888446	     89.53710320	      0.13243073	      0.92183663	     -1.19649922	     35.53545824	     -4.77408103	     -0.67607985	     41.96991007	      0.73251312	      6.88098111	     -0.00000000	      0.00000000	      3.87830278	      8.92995094	      7.20521591	      0.57435086	      0.01002431	      4.27577453	      0.00000000	      0.00000000	      4.07710264	     -5.52576795	     -2.07474278	     -0.00000000	      0.00000000	      0.00000000	      0.00000000	      0.00000000	      0.00000000	      0.00000000	     -0.00000000	      0.00000000	      0.00000000	      0.00000000	      0.00000000	     -0.00000000	      0.00000000
      1.69000000	     -5.10680841	     -7.83464432	     89.55909685	      0.13204107	      0.92082215	     -1.20888667	     35.58108877	     -4.82248691	     -1.08159474	     38.66155518	      0.67477143	      6.74760776	      0.00000000	      0.00000000	      2.39200979	      8.99491605	      7.68476283	      0.03700930	      0.00064593	      4.81318773	      0.00000000	      0.00000000	      3.71351055	     -5.55293224	     -2.22690868	      0.00000000	      0.00000000	      0.00000000	      0.00000000	      0.00000000	      0.00000000	      0.00000000	      0.00000000	      0.00000000	      0.00000000	      0.00000000	      0.00000000	      0.00000000	      0.00000000
      1.70000000	     -5.17207475	     -7.68605862	     89.57402086	      0.13167948	      0.91937829	     -1.22123837	     35.70785770	     -4.88330935	     -1.54516813	     35.21773574	      0.61466544	      6.47623521	      0.00000000	      0.00000000	      1.12393382	      9.08475318	      8.07092857	     -0.38172753	     -0.00666240	      5.46100823	      0.00000000	      0.00000000	      3.52797694	     -5.60364607	     -2.34402081	      0.00000000	      0.00000000	      0.00000000	      0.00000000	      0.00000000	      0.00000000	      0.00000000	      0.00000000	      0.00000000	      0.00000000	      0.00000000	      0.00000000	      0.00000000	      0.00000000
      1.71000000	     -5.22090848	     -7.54564341	     89.57993491	      0.13145408	      0.91775016	     -1.23369897	     35.73510363	     -4.89004980	     -2.04153742	     31.62899502	      0.55203010	      6.11983715	      0.00000000	      0.00000000	     -0.15269186	      9.14225922	      8.45753243	     -0.81515046	     -0.01422706	      6.08193976	      0.00000000	      0.00000000	      3.36426780	     -5.64177020	     -2.45118704	      0.00000000	      0.00000000	      0.00000000	      0.00000000	      0.00000000	      0.00000000	      0.00000000	      0.00000000	      0.00000000	      0.00000000	      0.00000000	      0.00000000	      0.00000000	      0.00000000
      1.72000000	     -5.27575354	     -7.43508771	     89.58093396	      0.13132514	      0.91590055	     -1.24619435	     35.70651904	     -4.86272343	     -2.53433065	     27.94270510	      0.48769221	      5.70895539	      0.00000000	      0.00000000	     -1.38897436	      9.19853432	      8.81226305	     -1.22529072	     -0.02138536	      6.68831500	      0.00000000	      0.00000000	      3.23598936	     -5.69930118	     -2.53780175	      0.00000000	      0.00000000	      0.00000000	      0.00000000	      0.00000000	      0.00000000	      0.00000000	      0.00000000	      0.00000000	      0.00000000	      0.00000000	      0.00000000	      0.00000000	      0.00000000
      1.73000000	     -5.37544539	     -7.57215891	     89.58553192	      0.13125119	      0.91353767	     -1.25863806	     35.88488419	     -4.82006249	     -2.87386699	     24.24248934	      0.42311126	      5.38251285	      0.00000000	      0.00000000	     -2.25476707	      9.30444457	      9.05796087	     -1.43740791	     -0.02508750	      7.31369752	      0.00000000	      0.00000000	      3.42023773	     -5.81787224	     -2.66299789	      0.00000000	      0.00000000	      0.00000000	      0.00000000	      0.00000000	      0.00000000	      0.00000000	      0.00000000	      0.00000000	      0.00000000	      0.00000000	      0.00000000	      0.00000000	      0.00000000
      1.74000000	     -5.40436633	     -7.32742101	     89.56472126	      0.13137609	      0.91161447	     -1.27137162	     35.51602523	     -4.67238909	     -3.24653030	     20.45485339	      0.35700454	      4.79665563	      0.00000000	      0.00000000	     -3.69118179	      9.30837105	      9.37582871	     -1.92434003	     -0.03358607	      7.96778628	      0.00000000	      0.00000000	      3.11975538	     -5.85691100	     -2.66517366	      0.00000000	      0.00000000	      0.00000000	      0.00000000	      0.00000000	      0.00000000	      0.00000000	      0.00000000	      0.00000000	      0.00000000	      0.00000000	      0.00000000	      0.00000000	      0.00000000
      1.75000000	     -5.56809974	     -7.53171362	     89.57120559	      0.13142823	      0.90892500	     -1.28388241	     35.65565472	     -4.61558624	     -3.27192440	     16.88814146	      0.29475367	      4.72867887	      0.00000000	      0.00000000	     -4.43549601	      9.47453252	      9.60067065	     -2.02608425	     -0.03536184	      8.44613114	      0.00000000	      0.00000000	      3.35751217	     -6.06136930	     -2.80013466	      0.00000000	      0.00000000	      0.00000000	      0.00000000	      0.00000000	      0.00000000	      0.00000000	      0.00000000	      0.00000000	      0.00000000	      0.00000000	      0.00000000	      0.00000000	      0.00000000
      1.76000000	     -5.54724861	     -7.23819144	     89.54296493	      0.13177007	      0.90690916	     -1.29698721	     35.06704992	     -4.33312073	     -3.21263034	     13.31666255	      0.23241961	      4.24550181	      0.00000000	      0.00000000	     -5.91451770	      9.40858405	      9.82571015	     -2.45437148	     -0.04283686	      9.03951559	      0.00000000	      0.00000000	      3.05855857	     -6.05621489	     -2.78061500	      0.00000000	      0.00000000	      0.00000000	      0.00000000	      0.00000000	      0.00000000	      0.00000000	      0.00000000	      0.00000000	      0.00000000	      0.00000000	      0.00000000	      0.00000000	      0.00000000
      1.77000000	     -5.63611054	     -7.22598950	     89.53069651	      0.13203338	      0.90445457	     -1.30995356	     34.82738845	     -4.16236871	     -2.85672286	     10.13572051	      0.17690169	      4.12910042	      0.00000000	      0.00000000	     -6.93279344	      9.47244056	      9.97796396	     -2.58848973	     -0.04517767	      9.54231533	      0.00000000	      0.00000000	      3.07509202	     -6.17500327	     -2.82286442	      0.00000000	      0.00000000	      0.00000000	      0.00000000	      0.00000000	      0.00000000	      0.00000000	      0.00000000	      0.00000000	      0.00000000	      0.00000000	      0.00000000	      0.00000000	      0.00000000
      1.78000000	     -5.77123185	     -7.33332759	     89.52183126	      0.13228272	      0.90185077	     -1.32295114	     34.74826542	     -4.05264188	     -2.29661924	      7.41621345	      0.12943734	      4.18526488	      0.00000000	      0.00000000	     -7.73928753	      9.58654778	     10.09612699	     -2.55917465	     -0.04466602	     10.02610233	      0.00000000	      0.00000000	      3.23058484	     -6.34613534	     -2.87740935	      0.00000000	      0.00000000	      0.00000000	      0.00000000	      0.00000000	      0.00000000	      0.00000000	      0.00000000	      0.00000000	      0.00000000	      0.00000000	      0.00000000	      0.00000000	      0.00000000
